<?xml version="1.0" standalone="no"?>
<!DOCTYPE svg PUBLIC "-//W3C//DTD SVG 20010904//EN"
  "http://www.w3.org/TR/2001/REC-SVG-20010904/DTD/svg10.dtd">
<svg width="154" height="24">
<g style="fill:black;fill-opacity:1;stroke:none;stroke-width:1;stroke-opacity:0;fill-rule:nonzero;" transform="matrix(0.998185 0 0 0.998752 0 0.0399501)">
<g style="" transform="matrix(0.998185 0 0 0.998752 0 0.0399501)">
  <path d="m110.215 23.07 7.873-17.456h-3.862l-4.534 9.913-4.557-9.913h-3.858l7.89 17.465zm13.452-17.506h-3.537V23.07h3.537zm3.33.05v17.434h1.417v.031h3.51a8.76 8.76 0 0 0 6.154-2.567 7.963 7.963 0 0 0 1.868-2.761 8.624 8.624 0 0 0 0-6.8 8.348 8.348 0 0 0-1.868-2.793 8.586 8.586 0 0 0-6.154-2.54zm3.483 13.978V9.101h1.444a5.245 5.245 0 0 1 0 10.49zm17.339-3.885.077.027c1.818.623 2.892 1.493 2.892 2.441a1.919 1.919 0 0 1-1.918 1.769 6.034 6.034 0 0 1-4.68-1.965l-2.54 2.391a9.681 9.681 0 0 0 4.155 2.639 10.322 10.322 0 0 0 3.068.424 5.418 5.418 0 0 0 5.405-5.247 5.053 5.053 0 0 0-1.367-3.415 9.316 9.316 0 0 0-3.858-2.319c-.149-.05-.3-.1-.5-.149-1.6-.4-2.22-.9-2.242-1.791a1.225 1.225 0 0 1 .3-1 2.664 2.664 0 0 1 1.543-.65 5.379 5.379 0 0 1 3.366 1.2l.618.4 1.818-2.964-.573-.374a8.663 8.663 0 0 0-5.234-1.742 6.071 6.071 0 0 0-4.061 1.715 4.67 4.67 0 0 0-1.272 3.56 4.815 4.815 0 0 0 2.238 3.939 8.459 8.459 0 0 0 2.639 1.1zM95.543 5.61l-3.56 6.574-3.587-6.574h-3.858l5.7 11.059v6.4h3.483v-6.4L99.405 5.61zm-17.484 0v9.764L68.422 5.61h-1.1v17.461h3.488V12.882l9.809 10.188h.92V5.609zm-21.991 0-8.893 17.451h3.912l1.642-3.24h7.224l1.521 3.244h3.858l-8.244-17.46zm.42 6.849 1.818 3.889h-3.785zM43.21 5.605l-7.273 6.619L28.645 5.6h-1.2v17.461h3.488V12.377l5 4.557 5.008-4.557v10.684h3.488V5.6H43.21zM10.63 19.118a1.876 1.876 0 0 0-.041-.217c-.239-.911-.465-1.823-.726-2.725a.569.569 0 0 1 .176-.677 1.3 1.3 0 0 0 .221-1.543 1.418 1.418 0 0 0-1.313-.772 1.376 1.376 0 0 0-1.232.938 1.3 1.3 0 0 0 .415 1.507.358.358 0 0 1 .117.438c-.257.916-.492 1.836-.735 2.757a2.781 2.781 0 0 0-.041.289h3.158m-1.6-7.9a5.417 5.417 0 0 1 1.642-2.134 4.357 4.357 0 0 1 5.577.352 5.785 5.785 0 0 1 1.187 6.736 13.445 13.445 0 0 1-2.725 3.61 28.84 28.84 0 0 1-5.491 4.16.424.424 0 0 1-.352.027 27.5 27.5 0 0 1-6.4-5.094 9.672 9.672 0 0 1-2.279-3.84 5.677 5.677 0 0 1 1.8-5.766 4.324 4.324 0 0 1 6.6 1.169c.149.239.28.492.438.781M5.503 2.722c.4.379.79.781 1.214 1.132.352.293.537.262.772-.126.329-.546.618-1.11.9-1.683.036-.077-.036-.244-.108-.329A1.015 1.015 0 0 1 8.387.222a1.006 1.006 0 0 1 1.363 1.48.31.31 0 0 0-.072.438c.3.532.573 1.087.893 1.611.221.361.37.37.722.126a3.189 3.189 0 0 0 .447-.37c.266-.266.519-.541.776-.808-.492-.672-.4-1.358.2-1.678a1.006 1.006 0 0 1 1.354.406.985.985 0 0 1-.424 1.367.619.619 0 0 0-.388.492c-.23.947-.483 1.886-.717 2.833a.486.486 0 0 1-.532.415q-3-.007-5.992 0a.48.48 0 0 1-.532-.411c-.244-.966-.505-1.931-.74-2.9a.513.513 0 0 0-.334-.411 1 1 0 0 1-.564-1.132 1.026 1.026 0 0 1 .862-.767.982.982 0 0 1 1.074.659c.14.361.063.672-.284 1.142"/>
</g>
</g>
</svg>
