<svg xmlns="http://www.w3.org/2000/svg" viewBox="0 0 439.31 821.25">
    <path d="m302.9,730.61c-10.92,31.64-24.65,61.94-40.96,90.64,3.37-1.94,6.61-4.06,9.92-6.09,29.65-19.66,117.88-89.37,153.74-240.29.92-3.93,1.84-7.86,2.67-11.77.76-3.57,1.5-7.17,2.2-10.83.98-5.12,1.86-10.22,2.67-15.29.41-2.51.86-4.95,1.24-7.5C467.26,303.55,335.62,127.01,39.33,0c46.73,52.13,41.7,135.4-14.96,249.59-70.52,167.17,12.02,324.28,247.63,471.21,50.16-156.5,44.64-303.31-16.43-440.43,81.32,135.77,98.61,300.49,47.34,450.24Z"></path>
</svg>
