<?xml version="1.0" encoding="UTF-8"?>
<!-- Generator: Adobe Illustrator 22.1.0, SVG Export Plug-In . SVG Version: 6.00 Build 0)  -->
<svg version="1.1" id="Layer_1" xmlns="http://www.w3.org/2000/svg" xmlns:xlink="http://www.w3.org/1999/xlink" x="0px" y="0px" width="666px" height="212px" viewBox="0 0 666 212" style="enable-background:new 0 0 666 212;" xml:space="preserve">
<style type="text/css">
	.st0{fill:#E33175;}
	.st1{fill:#FFFFFF;}
</style>
<g>
	<path class="st0" d="M0.5,33.7V2.5H88v31.1H59.4v175.1H29.1V33.7H0.5z"/>
	<path class="st0" d="M150,57.8c0-6.7-0.3-14.3-2.2-20.2c-2-5.6-5-9.5-9.8-9.5c-7.9,0.3-10.4,8.4-10.4,20.5c0,7,3.1,14.3,7.6,22.2   s10.4,16,16.3,24.7c7,10.4,14,21,19.4,31.4c5.3,10.4,9,21,9,32.3c0,13.7-2.2,26.7-8.7,36.2c-6.5,9.5-16.8,15.7-33.4,15.7   c-19.4,0-30.3-7.3-36.5-18.5c-6.2-11.2-7.6-26.1-7.6-41.5l29.7-2.8c0,8.7,0.3,17.4,2.5,23.8c2,6.7,5.3,11.2,11.8,11.2   c9,0,12.3-9.5,12.3-22.7c0-6.7-3.4-14.6-7.9-22.7c-2.5-3.9-5-8.1-7.9-12.3c-5.9-8.4-12.3-18-19.1-28.3c-6.7-10.4-11.8-21-14.9-32   c-1.7-5.3-2.5-10.9-2.5-16.6c0-11.2,2.5-23.3,9-32.5c6.5-9,16.3-15.4,30.6-15.7c18.2-0.3,28.9,7.3,34.8,18.2   c5.9,11.2,7.6,25,7.6,36.5L150,57.8z"/>
	<path class="st1" d="M235,163.9h-46.9v-26.7L232.5,2.5h30.3v134.7h14v26.7h-14v44.9H235V163.9z M214,137.2h21V66.5h-1.7l-1.7,6.2   L214,137.2z"/>
	<path class="st0" d="M343.9,208.8l-15.7-87H320v87h-30.3V2.5H320c36.2,0,51.6,20.5,51.6,59.5c0,20.5-5.3,39-16.8,46.9l19.4,99.9   L343.9,208.8L343.9,208.8z M320,93.7c4.2,0,9.8-0.6,14.3-4.5c4.5-3.9,8.1-11.5,8.1-26.1s-3.6-22.4-8.1-26.4   c-4.5-3.9-10.1-4.2-14.3-4.2V93.7z"/>
	<path class="st0" d="M391,2.5h69.3v31.1h-39v54.1h28.1v33.1h-28.1v56.7h39v31.1H391V2.5z"/>
	<path class="st0" d="M509.1,101.3l-2.5-9.5h-1.7v117h-27.8V2.5h26.9L533.5,110l2.5,9.5h1.7V2.5h27.8v206.2h-26.9L509.1,101.3z"/>
	<path class="st0" d="M577.3,33.7V2.5h87.5v31.1h-28.6v175.1h-30.3V33.7H577.3z"/>
</g>
</svg>