<svg width="119" height="28" viewBox="0 0 119 28" fill="none" xmlns="http://www.w3.org/2000/svg"><path fill-rule="evenodd" clip-rule="evenodd" d="M79.3598 1.05335C80.9655 0.374994 82.738 0 84.5774 0H84.5937C87.3547 0.000420162 89.9536 0.847256 92.0876 2.28862C94.2268 3.73125 95.9226 5.76714 96.9438 8.17446C97.6244 9.778 98.0004 11.5486 98 13.3861C98.0013 15.7762 97.3633 18.0445 96.2524 19.9942C96.081 20.2949 95.8995 20.5886 95.7062 20.8734C95.5382 21.1215 95.3611 21.3627 95.1773 21.5988L96.9207 23.9131L91.4854 28L82.0148 15.4262C80.8843 13.9288 81.1841 11.8005 82.6847 10.6721L82.6856 10.6717C83.2989 10.2104 84.0178 9.98766 84.7307 9.98766C85.7627 9.98745 86.7818 10.4538 87.4505 11.3397L89.7912 14.4475C89.8609 14.1067 89.9011 13.754 89.9016 13.3861C89.9001 12.2742 89.5695 11.2736 88.9955 10.4221C88.8981 10.2778 88.7943 10.1377 88.6864 10.0011C88.675 9.98737 88.6636 9.97361 88.6521 9.95986C88.609 9.90778 88.5659 9.85589 88.5201 9.80637C88.4925 9.7738 88.4643 9.74208 88.4359 9.71036C87.4393 8.67949 86.0461 8.07824 84.5968 8.07824H84.5966C83.4385 8.07887 82.3365 8.44504 81.4086 9.13873L81.4073 9.13936L81.3945 9.14881C79.0503 10.9116 78.5799 14.2481 80.3465 16.5865L87.7524 26.3929C86.7327 26.6395 85.6704 26.7731 84.5835 26.7729C81.8183 26.7744 79.2156 25.9269 77.0791 24.4841C74.9398 23.0415 73.244 21.0054 72.2226 18.598C71.5423 16.9941 71.166 15.2235 71.1667 13.3861C71.1652 10.6272 72.0142 8.03076 73.4603 5.89907C74.9064 3.76465 76.9469 2.07266 79.3598 1.05335ZM12.7755 1.16667V9.90183H8.19657V1.16667H0V26.8333H8.19657V17.3287H12.7755V26.8333H21.0106V1.16667H12.7755ZM36.0639 1.16667V16.7391C36.0639 17.6152 35.8818 18.2844 35.5194 18.7468C35.1563 19.2099 34.5488 19.4409 33.6982 19.4409C32.8467 19.4409 32.2394 19.2099 31.8768 18.7468C31.5135 18.2844 31.3322 17.6152 31.3322 16.7391V1.16667H23.3333V17.077C23.3333 18.7279 23.5777 20.1669 24.0657 21.3924C24.5537 22.6185 25.2485 23.6317 26.15 24.4318C27.051 25.233 28.1402 25.833 29.4167 26.233C30.6938 26.6327 32.1205 26.8333 33.6982 26.8333C35.2756 26.8333 36.7025 26.6327 37.9788 26.233C39.2559 25.833 40.3508 25.233 41.265 24.4318C42.1784 23.6317 42.8798 22.6185 43.3678 21.3924C43.856 20.1669 44.1 18.7279 44.1 17.077V1.16667H36.0639ZM101.67 1.16667L99.0529 7.90082H106.928L98 26.8333H115.482L118.06 20.099H109.633L118.561 1.16667H101.67ZM60.3541 11.0561V1.16667H68.5102V26.8333H61.6416L54.4997 16.9825V26.8333H46.3436V1.16667H53.1733L60.3541 11.0561Z" fill="url(#paint0_linear_528_28372)"/><defs><linearGradient id="paint0_linear_528_28372" x1="1.86353e-07" y1="23.5851" x2="106.098" y2="23.5851" gradientUnits="userSpaceOnUse"><stop stop-color="#FC193C"/><stop offset="1" stop-color="#FF7B00"/></linearGradient></defs></svg>