<?xml version="1.0" encoding="UTF-8" standalone="no"?>
<!-- Created with Inkscape (http://www.inkscape.org/) -->
<svg xmlns:dc="http://purl.org/dc/elements/1.1/" xmlns:cc="http://creativecommons.org/ns#" xmlns:rdf="http://www.w3.org/1999/02/22-rdf-syntax-ns#" xmlns:svg="http://www.w3.org/2000/svg" xmlns="http://www.w3.org/2000/svg" version="1.1" width="128.29225" height="60.001877" id="svg2985" xml:space="preserve"><metadata id="metadata2991"><rdf:RDF><cc:Work rdf:about=""><dc:format>image/svg+xml</dc:format><dc:type rdf:resource="http://purl.org/dc/dcmitype/StillImage"/><dc:title/></cc:Work></rdf:RDF></metadata><defs id="defs2989"><clipPath id="clipPath2999"><path d="M 0,48 192,48 192,0 0,0 0,48 z" id="path3001"/></clipPath><clipPath id="clipPath3009"><path d="m -95.0845,24.0007 190.1695,0 0,-48.0015 -190.1695,0 0,48.0015 z" id="path3011"/></clipPath><clipPath id="clipPath3037"><path d="m 6.24805,21.5664 9.79885,0 0,-25.39257 -9.79885,0 0,25.39257 z" id="path3039"/></clipPath><clipPath id="clipPath3053"><path d="m 14.8867,21.5664 5.5679,0 0,-25.39257 -5.5679,0 0,25.39257 z" id="path3055"/></clipPath><clipPath id="clipPath3065"><path d="m 16.1768,20.7187 78.9082,0 0,-18.49653 -78.9082,0 0,18.49653 z" id="path3067"/></clipPath><clipPath id="clipPath3065-7"><path d="m 16.1768,20.7187 78.9082,0 0,-18.49653 -78.9082,0 0,18.49653 z" id="path3067-1"/></clipPath><clipPath id="clipPath3053-5"><path d="m 14.8867,21.5664 5.5679,0 0,-25.39257 -5.5679,0 0,25.39257 z" id="path3055-1"/></clipPath><clipPath id="clipPath3037-4"><path d="m 6.24805,21.5664 9.79885,0 0,-25.39257 -9.79885,0 0,25.39257 z" id="path3039-5"/></clipPath><clipPath id="clipPath3009-8"><path d="m -95.0845,24.0007 190.1695,0 0,-48.0015 -190.1695,0 0,48.0015 z" id="path3011-2"/></clipPath><clipPath id="clipPath2999-4"><path d="M 0,48 192,48 192,0 0,0 0,48 z" id="path3001-8"/></clipPath></defs><g transform="matrix(1.25,0,0,-1.25,6.45e-4,60.001)" id="g2993"><g transform="matrix(1,0,0,-1,95.083984,24)" id="g3033" style="fill:#000000"><g id="g3035" style="fill:#000000"/><g id="g3041" style="fill:#000000"><g clip-path="url(#clipPath3037)" id="g3043" style="fill:#000000"/></g></g><g transform="matrix(1,0,0,-1,95.083984,24)" id="g3049" style="fill:#000000"><g id="g3051" style="fill:#000000"/><g id="g3057" style="fill:#000000"><g clip-path="url(#clipPath3053)" id="g3059" style="fill:#000000"/></g></g><g transform="matrix(1,0,0,-1,95.083984,24)" id="g3061" style="fill:#000000"><g id="g3063" style="fill:#000000"/><g id="g3069" style="fill:#000000"><g clip-path="url(#clipPath3065)" id="g3071" style="fill:#000000"/></g></g><g id="g3030" style="fill:#ffffff"><g transform="matrix(1,0,0,-1,11.456084,6.6553)" id="g3013" style="fill:#ffffff"><path d="M -2.518,-1.385 0,0 C 0.793,0.278 1.612,0.434 2.455,0.466 0.319,-0.997 -1.493,-2.2394194 -3.66125,-3.7197097 -6.8215,-6.842 -10.975,-10.928 -11.457,-15.563 c 1.874,-4.127 7.949,-4.417 11.823,-4.417 0,0 -6.545,0 0,0 l 4.986,0.629 c 3.296,0.609 8.499,5.842 3.502,6.697 -1.186,0.203 -3.781,-1.731 -4.884,-2.132 -1.468,-0.534 -3.107,-0.925 -4.678,-0.725 -0.574,0.073 -1.3066447,0.289322 -2.0908223,0.733661 C -3.583,-14.333 -4.28,-13.598 -4.172,-12.653 -3.653,-8.128 16.919,2.033 8.071,5.954 3.631,5.954 -6.549,5.771 -6.02,-0.907 l 2.334296,-2.5123538 C -3.4297913,-2.9704442 -2.798,-1.776 -2.518,-1.385 z" id="path3015" style="fill:#ffffff;fill-opacity:1;fill-rule:nonzero;stroke:none"/></g><g transform="matrix(1,0,0,-1,29.188484,47.9941)" id="g3017" style="fill:#ffffff"><path d="m 0,0 c 4,0.146 1.833,8.729 1.474,10.775 -0.936,5.346 -2.142,10.643 -1.468,16.093 0.702,5.671 2.533,11.134 3.85,16.679 0.057,0.242 0.719,3.73 1.065,3.73 l -1.725,0 c -5.509,0 -6.736,-6.678 -7.7,-10.769 C -6.35,28.672 -6.729,20.796 -6.033,12.795 -5.534,7.053 -5.723,2.291 0.448,-0.005 0.426,-0.012 0.105,0.004 0,0" id="path3019" style="fill:#ffffff;fill-opacity:1;fill-rule:nonzero;stroke:none"/></g><g transform="matrix(1,0,0,-1,35.189984,24.7168)" id="g3021" style="fill:#ffffff"><path d="m 0,0 2.514,0 c 3.578,1.001 2.245,7.747 2.099,10.172 -0.088,1.463 -0.201,2.711 0.061,4.191 0.465,2.633 3.127,5.369 2.818,7.904 l -1.479,1.734 -1.527,0 C -4.552,24.001 -1.722,0 0,0 0,0 -0.987,0 0,0 m 0.047,-16.25 1.776,0 c 3.503,0 4.372,2.918 4.043,5.873 -2.537,7.498 -11.344,-5.873 -5.819,-5.873 0,0 -0.755,0 0,0" id="path3023" style="fill:#ffffff;fill-opacity:1;fill-rule:nonzero;stroke:none"/></g><g transform="matrix(1,0,0,-1,49.598584,25.7168)" id="g3025" style="fill:#ffffff"><path d="m 0,0 1.232,0 c 2.331,0 1.753,3.896 3.256,5.128 3.158,-2.387 6.911,-4.495 10.993,-4.622 2.197,0 4.312,1.349 4.092,3.613 L 17.552,6.652 C 16.318,6.584 15.079,6.475 13.852,6.316 11.336,7.361 9.004,8.846 6.504,9.915 l 0,-0.389 L 10.995,6 9.762,6 c -3,1 -4.96,2.797 -3.359,5.761 1.376,2.546 2.98,5.301 5.336,7.104 3.446,2.635 4.176,-0.856 5.813,-3.552 l 0.788,1.451 c 0,5.168 -2.064,4.816 -4.487,7.912 C 10.764,23.453 1.626,16.557 1.626,13.17 -2.226,16.004 -3.392,19.783 -3.253,24.326 L -4.091,25 -5.324,25 C -12.277,22.25 -2.188,10.93 0,8.762 0.72,6.397 -3.125,1.25 0,0" id="path3027" style="fill:#ffffff;fill-opacity:1;fill-rule:nonzero;stroke:none"/></g><g transform="matrix(1,0,0,-1,73.440384,7.6172)" id="g3029" style="fill:#ffffff"><path d="M 0,0 C 4.748,-3.402 12.357,-8.052 14.505,-13.771 7.684,-12.287 1.277,-6.951 0,0 0,0 1.174,-6.393 0,0 m 17.847,-18.234 3.006,1.127 c 0.29,4.96 -2.529,9.248 -2.768,14.099 0.088,4.311 4.932,6.708 4.439,10.527 -6.551,0.895 -9.756,-4.412 -10.69,-10.104 l -0.383,0.049 C 7.881,0.74 2.81,5.883 -2.436,6.25 -7.744,5.621 -6.198,0.598 -5,-3.031 c 3.362,-10.176 12.394,-14.9 22.847,-15.203 0,0 -14.001,0.407 0,0" id="path3031" style="fill:#ffffff;fill-opacity:1;fill-rule:nonzero;stroke:none"/></g><g transform="scale(1,-1)" id="text3647" style="font-size:7.60026503px;font-style:normal;font-weight:normal;line-height:125%;letter-spacing:0px;word-spacing:0px;fill:#ffffff;fill-opacity:1;stroke:none;font-family:Sans"><path d="m 99.622414,-31.176116 c 0.470066,5e-6 0.928996,0.120615 1.376806,0.361829 0.4478,0.241224 0.79664,0.586353 1.04652,1.035387 0.24987,0.449043 0.37481,0.917255 0.37482,1.404639 -10e-6,0.482441 -0.12309,0.946324 -0.36925,1.39165 -0.24618,0.445329 -0.5913,0.791076 -1.03539,1.037243 -0.4441,0.246168 -0.9086,0.369251 -1.393506,0.369251 -0.484915,0 -0.949416,-0.123083 -1.393506,-0.369251 -0.444092,-0.246167 -0.789839,-0.591914 -1.037243,-1.037243 -0.247404,-0.445326 -0.371106,-0.909209 -0.371106,-1.39165 0,-0.487384 0.125557,-0.955596 0.376673,-1.404639 0.251115,-0.449034 0.600573,-0.794163 1.048376,-1.035387 0.4478,-0.241214 0.906735,-0.361824 1.376806,-0.361829 z m 0,0.463883 c -0.393375,5e-6 -0.776233,0.100822 -1.148575,0.302452 -0.372345,0.201639 -0.663664,0.489865 -0.873956,0.864678 -0.210295,0.374822 -0.315442,0.765102 -0.315441,1.170842 -10e-7,0.403272 0.103291,0.789841 0.309874,1.159708 0.206582,0.369871 0.495426,0.658097 0.866534,0.864679 0.371105,0.206583 0.758292,0.309875 1.161564,0.309874 0.403266,10e-7 0.790456,-0.103291 1.161566,-0.309874 0.3711,-0.206582 0.65933,-0.494808 0.86468,-0.864679 0.20534,-0.369867 0.30801,-0.756436 0.30802,-1.159708 -1e-5,-0.40574 -0.10454,-0.79602 -0.31359,-1.170842 -0.20906,-0.374813 -0.50038,-0.663039 -0.87396,-0.864678 -0.37358,-0.20163 -0.75582,-0.302447 -1.146716,-0.302452 z m -1.228363,3.885487 0,-3.013386 1.035388,0 c 0.353785,4e-6 0.609851,0.02784 0.768191,0.0835 0.15833,0.05567 0.28451,0.152776 0.37853,0.291318 0.094,0.138551 0.14101,0.285756 0.14102,0.441617 -1e-5,0.220193 -0.0786,0.411932 -0.23565,0.575216 -0.15711,0.163289 -0.36555,0.254829 -0.625319,0.274619 0.106381,0.04453 0.191739,0.09773 0.256059,0.159576 0.12123,0.118756 0.26967,0.317916 0.44533,0.597481 l 0.3674,0.59006 -0.59377,0 -0.2672,-0.475017 c -0.210296,-0.373578 -0.379768,-0.607375 -0.508415,-0.701391 -0.08907,-0.06927 -0.218956,-0.103908 -0.389662,-0.10391 l -0.285752,0 0,1.280318 z m 0.48615,-1.695958 0.590059,0 c 0.282038,3e-6 0.474395,-0.04205 0.57707,-0.126176 0.10267,-0.08411 0.15401,-0.195446 0.15401,-0.333996 0,-0.08906 -0.0247,-0.16885 -0.0742,-0.239364 -0.0495,-0.07051 -0.11814,-0.12308 -0.205965,-0.15772 -0.08783,-0.03463 -0.2505,-0.05195 -0.488005,-0.05195 l -0.552949,0 z" id="path3028" style="fill:#ffffff"/></g></g>
</g></svg>