<?xml version="1.0" encoding="UTF-8" standalone="no"?>
<!-- Generator: Adobe Illustrator 22.1.0, SVG Export Plug-In . SVG Version: 6.00 Build 0)  -->

<svg
   version="1.1"
   id="Layer_1"
   x="0px"
   y="0px"
   width="373.70001"
   height="210.60858"
   viewBox="0 0 373.70001 210.60858"
   xml:space="preserve"
   sodipodi:docname="logo.ts4r.svg"
   inkscape:version="1.4 (e7c3feb1, 2024-10-09)"
   xmlns:inkscape="http://www.inkscape.org/namespaces/inkscape"
   xmlns:sodipodi="http://sodipodi.sourceforge.net/DTD/sodipodi-0.dtd"
   xmlns="http://www.w3.org/2000/svg"
   xmlns:svg="http://www.w3.org/2000/svg"><defs
   id="defs7" /><sodipodi:namedview
   id="namedview7"
   pagecolor="#ffffff"
   bordercolor="#000000"
   borderopacity="0.25"
   inkscape:showpageshadow="2"
   inkscape:pageopacity="0.0"
   inkscape:pagecheckerboard="0"
   inkscape:deskcolor="#d1d1d1"
   inkscape:zoom="1"
   inkscape:cx="329.5"
   inkscape:cy="106"
   inkscape:window-width="1760"
   inkscape:window-height="1023"
   inkscape:window-x="0"
   inkscape:window-y="25"
   inkscape:window-maximized="0"
   inkscape:current-layer="g7" />
<style
   type="text/css"
   id="style1">
	.st0{fill:#E33175;}
	.st1{fill:#FFFFFF;}
</style>
<g
   id="g7"
   transform="translate(-0.5,-0.49142394)">
	<path
   class="st0"
   d="M 0.5,33.7 V 2.5 H 88 V 33.6 H 59.4 V 208.7 H 29.1 v -175 z"
   id="path1" />
	<path
   class="st0"
   d="m 150,57.8 c 0,-6.7 -0.3,-14.3 -2.2,-20.2 -2,-5.6 -5,-9.5 -9.8,-9.5 -7.9,0.3 -10.4,8.4 -10.4,20.5 0,7 3.1,14.3 7.6,22.2 4.5,7.9 10.4,16 16.3,24.7 7,10.4 14,21 19.4,31.4 5.3,10.4 9,21 9,32.3 0,13.7 -2.2,26.7 -8.7,36.2 -6.5,9.5 -16.8,15.7 -33.4,15.7 -19.4,0 -30.3,-7.3 -36.5,-18.5 -6.2,-11.2 -7.6,-26.1 -7.6,-41.5 l 29.7,-2.8 c 0,8.7 0.3,17.4 2.5,23.8 2,6.7 5.3,11.2 11.8,11.2 9,0 12.3,-9.5 12.3,-22.7 0,-6.7 -3.4,-14.6 -7.9,-22.7 -2.5,-3.9 -5,-8.1 -7.9,-12.3 -5.9,-8.4 -12.3,-18 -19.1,-28.3 -6.7,-10.4 -11.8,-21 -14.9,-32 -1.7,-5.3 -2.5,-10.9 -2.5,-16.6 0,-11.2 2.5,-23.3 9,-32.5 6.5,-9 16.3,-15.4 30.6,-15.7 18.2,-0.3 28.9,7.3 34.8,18.2 5.9,11.2 7.6,25 7.6,36.5 z"
   id="path2" />
	<path
   class="st1"
   d="M 235,163.9 H 188.1 V 137.2 L 232.5,2.5 h 30.3 v 134.7 h 14 v 26.7 h -14 v 44.9 H 235 Z m -21,-26.7 h 21 V 66.5 h -1.7 l -1.7,6.2 z"
   id="path3" />
	<path
   class="st0"
   d="m 343.9,208.8 -15.7,-87 H 320 v 87 H 289.7 V 2.5 H 320 c 36.2,0 51.6,20.5 51.6,59.5 0,20.5 -5.3,39 -16.8,46.9 l 19.4,99.9 z M 320,93.7 c 4.2,0 9.8,-0.6 14.3,-4.5 4.5,-3.9 8.1,-11.5 8.1,-26.1 0,-14.6 -3.6,-22.4 -8.1,-26.4 -4.5,-3.9 -10.1,-4.2 -14.3,-4.2 z"
   id="path4" />
	
	
	
</g>
</svg>
