<svg width="113" height="36" viewBox="0 0 113 36" fill="none" xmlns="http://www.w3.org/2000/svg">
<path d="M0.082 9.2159V4.6649H12.874V9.2159H8.692V34.7999H4.264V9.2159H0.082ZM21.9517 12.7419C21.9517 11.7579 21.9107 10.6509 21.6237 9.7899C21.3367 8.9699 20.8857 8.3959 20.1887 8.3959C19.0407 8.4369 18.6717 9.6259 18.6717 11.3889C18.6717 12.4139 19.1227 13.4799 19.7787 14.6279C20.4347 15.7759 21.2957 16.9649 22.1567 18.2359C23.1817 19.7529 24.2067 21.3109 24.9857 22.8279C25.7647 24.3449 26.2977 25.9029 26.2977 27.5429C26.2977 29.5519 25.9697 31.4379 25.0267 32.8319C24.0837 34.2259 22.5667 35.1279 20.1477 35.1279C17.3187 35.1279 15.7197 34.0619 14.8177 32.4219C13.9157 30.7819 13.7107 28.6089 13.7107 26.3539L18.0567 25.9439C18.0567 27.2149 18.0977 28.4859 18.4257 29.4289C18.7127 30.4129 19.2047 31.0689 20.1477 31.0689C21.4597 31.0689 21.9517 29.6749 21.9517 27.7479C21.9517 26.7639 21.4597 25.6159 20.8037 24.4269C20.4347 23.8529 20.0657 23.2379 19.6557 22.6229C18.7947 21.3929 17.8517 19.9989 16.8677 18.4819C15.8837 16.9649 15.1457 15.4069 14.6947 13.8079C14.4487 13.0289 14.3257 12.2089 14.3257 11.3889C14.3257 9.7489 14.6947 7.9859 15.6377 6.6329C16.5807 5.3209 18.0157 4.3779 20.1067 4.3369C22.7717 4.2959 24.3297 5.4029 25.1907 7.0019C26.0517 8.6419 26.2977 10.6509 26.2977 12.3319L21.9517 12.7419Z" fill="#DB296E"/>
<path d="M51.1801 28.9845C50.9386 28.093 50.5488 27.2475 50.0266 26.4828C49.3333 25.4635 48.5538 24.5044 47.6965 23.6159C46.1993 22.0365 46.1012 20.4088 47.0339 18.5864C47.8192 17.0315 48.58 15.4281 49.2179 13.8244C50.9113 9.54844 51.5247 5.17498 50.445 0.680335C50.3806 0.447742 50.2986 0.220314 50.1995 0C46.6657 2.08942 45.0212 4.34908 44.2359 5.75817C42.3951 9.03964 42.1007 13.0957 41.7089 18.3191C41.7089 18.4649 41.6843 18.5864 41.6843 18.6592H41.6596C41.6596 18.5864 41.635 18.4643 41.635 18.3191C41.2412 13.0953 40.9478 9.03801 39.1081 5.75817C38.3227 4.34908 36.7032 2.08942 33.1444 0C33.0459 0.292408 32.9475 0.487345 32.8989 0.680335C31.8192 5.17498 32.4326 9.54844 34.126 13.8244C34.7639 15.4522 35.525 17.0315 36.31 18.5864C37.2427 20.4088 37.1199 22.0365 35.6474 23.6159C34.7829 24.4982 34.0028 25.4579 33.3173 26.4828C32.7951 27.2475 32.4053 28.093 32.1638 28.9845C32.006 29.5348 31.9616 30.1109 32.0333 30.6786C32.1049 31.2462 32.2912 31.7938 32.5809 32.2887C33.0907 33.083 33.8126 33.7221 34.6668 34.1351C35.548 34.5599 36.5131 34.7868 37.4931 34.7994C38.4731 34.8119 39.4438 34.61 40.3358 34.2079C40.5792 34.0692 40.7954 33.8882 40.9738 33.6734C41.1661 33.44 41.3009 33.1655 41.3676 32.8716C41.5694 31.7819 41.6599 30.6749 41.6377 29.5673C41.6053 30.6752 41.6958 31.7833 41.9078 32.8716C41.9903 33.1597 42.1236 33.4312 42.3016 33.6734C42.4874 33.8808 42.7022 34.0607 42.9395 34.2079C43.8317 34.6093 44.8023 34.8109 45.7822 34.7983C46.7621 34.7857 47.7272 34.5593 48.6085 34.1351C49.4716 33.7354 50.197 33.0933 50.6944 32.2887C51.0071 31.8034 51.2121 31.2579 51.2958 30.6883C51.3795 30.1186 51.3401 29.5379 51.1801 28.9845ZM44.5539 12.6817C44.9477 10.18 45.6093 7.7498 47.5232 5.34425C47.6989 5.14598 47.8874 4.9593 48.0877 4.78543C49.0693 7.65233 46.5905 15.8401 44.2591 17.4438C44.1973 15.8507 44.2961 14.2555 44.5539 12.6817ZM35.3264 4.78673C35.5267 4.96061 35.7153 5.14728 35.8909 5.34555C37.8052 7.7498 38.4678 10.1804 38.8603 12.6831C39.1173 14.265 39.2162 15.8683 39.1556 17.4695C36.8236 15.8404 34.3449 7.67702 35.3264 4.78575V4.78673ZM46.3946 28.1355H44.7508V30.2474H42.4683V28.1355H36.9952V26.5793L41.7807 20.2139H44.2349L39.793 26.2635H42.5168V24.3927H44.7255V26.2635H46.3697V28.1355H46.3946Z" fill="white"/>
<path d="M64.8909 34.7999L62.5949 22.0899H61.4059V34.7999H56.9779V4.6649H61.4059C66.6949 4.6649 68.9499 7.6579 68.9499 13.3569C68.9499 16.3499 68.1709 19.0559 66.4899 20.2039L69.3189 34.7999H64.8909ZM61.4059 17.9899C62.0209 17.9899 62.8409 17.9079 63.4969 17.3339C64.1529 16.7599 64.6859 15.6529 64.6859 13.5209C64.6859 11.3889 64.1529 10.2409 63.4969 9.6669C62.8409 9.0929 62.0209 9.0519 61.4059 9.0519V17.9899ZM71.7923 4.6649H81.9193V9.2159H76.2203V17.1289H80.3203V21.9669H76.2203V30.2489H81.9193V34.7999H71.7923V4.6649ZM89.0386 19.0969L88.6696 17.7029H88.4236V34.7999H84.3646V4.6649H88.3006L92.6056 20.3679L92.9746 21.7619H93.2206V4.6649H97.2796V34.7999H93.3436L89.0386 19.0969ZM98.9824 9.2159V4.6649H111.774V9.2159H107.592V34.7999H103.164V9.2159H98.9824Z" fill="#DB296E"/>
</svg>
