<?xml version="1.0" encoding="UTF-8" standalone="no"?>
<svg
   data-name="logo-default"
   data-testid="logo-default-icon"
   viewBox="0 -0.04 18.032253 24.052524"
   version="1.1"
   id="svg1"
   sodipodi:docname="logo.manyvids-heart.svg"
   inkscape:version="1.4 (e7c3feb1, 2024-10-09)"
   width="18.032253"
   height="24.052525"
   xmlns:inkscape="http://www.inkscape.org/namespaces/inkscape"
   xmlns:sodipodi="http://sodipodi.sourceforge.net/DTD/sodipodi-0.dtd"
   xmlns="http://www.w3.org/2000/svg"
   xmlns:svg="http://www.w3.org/2000/svg">
  <defs
     id="defs1" />
  <sodipodi:namedview
     id="namedview1"
     pagecolor="#ffffff"
     bordercolor="#000000"
     borderopacity="0.25"
     inkscape:showpageshadow="2"
     inkscape:pageopacity="0.0"
     inkscape:pagecheckerboard="0"
     inkscape:deskcolor="#d1d1d1"
     inkscape:zoom="8.0178896"
     inkscape:cx="50.574406"
     inkscape:cy="12.721552"
     inkscape:window-width="1720"
     inkscape:window-height="981"
     inkscape:window-x="0"
     inkscape:window-y="25"
     inkscape:window-maximized="0"
     inkscape:current-layer="svg1" />
  <path
     d="m 10.630654,19.140404 c -0.0094,-0.07308 -0.02308,-0.145535 -0.041,-0.217 -0.239,-0.911 -0.465,-1.823 -0.7260004,-2.725 -0.1033525,-0.239339 -0.030831,-0.5183 0.1760004,-0.677 0.408042,-0.408238 0.498047,-1.036638 0.221,-1.543 -0.250584,-0.490502 -0.7625426,-0.791516 -1.3130004,-0.772 -0.56432,0.03001 -1.0529127,0.40201 -1.232,0.938 -0.2128343,0.538692 -0.043607,1.15321 0.415,1.507 0.1382529,0.09956 0.1871895,0.28276 0.117,0.438 -0.257,0.916 -0.492,1.836 -0.735,2.757 -0.018716,0.09555 -0.032402,0.192015 -0.041,0.289 h 3.1580004 m -1.6000004,-7.9 C 9.388656,10.39721 9.9534364,9.6632013 10.671654,9.1014038 c 1.699386,-1.2472131 4.047914,-1.0989825 5.577,0.352 1.822799,1.7459462 2.303203,4.4721512 1.187,6.7360002 -0.697958,1.348581 -1.619326,2.569183 -2.725,3.61 -1.657551,1.601073 -3.501032,2.997701 -5.4910004,4.16 -0.1078294,0.05974 -0.2363206,0.0696 -0.352,0.027 -2.3753487,-1.369455 -4.5325398,-3.086444 -6.4,-5.094 -1.048787,-1.084717 -1.82925175,-2.39976 -2.27900004,-3.84 -0.55717394,-2.108189 0.14241422,-4.349203 1.80000004,-5.7660002 2.0738766,-1.7880035 5.2664089,-1.2225383 6.6,1.1690002 0.149,0.239 0.28,0.492 0.438,0.781 m -3.523,-8.4920002 c 0.4,0.379 0.79,0.781 1.214,1.132 0.352,0.293 0.537,0.262 0.772,-0.126 0.329,-0.546 0.618,-1.11 0.9,-1.683 0.036,-0.077 -0.036,-0.244 -0.108,-0.329 -0.4102422,-0.4325033 -0.3611978,-1.12375148 0.106,-1.49399996 0.9866662,-0.90866627 2.3496664,0.57133373 1.363,1.47999996 -0.1428388,0.099814 -0.1753703,0.2977135 -0.072,0.438 0.3,0.532 0.5730004,1.087 0.8930004,1.611 0.221,0.361 0.37,0.37 0.722,0.126 0.159934,-0.109493 0.309554,-0.2333389 0.447,-0.37 0.266,-0.266 0.519,-0.541 0.776,-0.808 -0.492,-0.672 -0.4,-1.358 0.2,-1.678 0.486391,-0.25798356 1.089809,-0.0770473 1.354,0.406 0.277315,0.4928925 0.08357,1.1175522 -0.424,1.367 -0.208917,0.081596 -0.357352,0.2698181 -0.388,0.492 -0.23,0.947 -0.483,1.886 -0.717,2.833 -0.03678,0.2589486 -0.271887,0.4423538 -0.532,0.415 -2,-0.00467 -3.9973337,-0.00467 -5.9920004,0 -0.2596827,0.030788 -0.4962279,-0.1519569 -0.532,-0.411 -0.244,-0.966 -0.505,-1.931 -0.74,-2.9 -0.026543,-0.1883196 -0.15509,-0.3465019 -0.334,-0.411 -0.4330367,-0.1954461 -0.6687764,-0.6685975 -0.564,-1.132 0.1027353,-0.4083194 0.4445066,-0.71242441 0.862,-0.76699996 0.4703187,-0.069255 0.9227059,0.20832706 1.074,0.65899996 0.14,0.361 0.063,0.672 -0.284,1.142"
     id="path1"
     sodipodi:nodetypes="cccccccccccccccccccccccccccccccccccccccccccccccccc" />
</svg>
