<svg width="218" height="48" viewBox="0 0 218 48" fill="none" xmlns="http://www.w3.org/2000/svg">
<path d="M90.2814 44.9283V43.0033C91.7314 44.7363 92.9996 46.252 94.4546 48.0001C92.1255 47.5302 90.2006 46.6915 87.9321 46.0095C88.7455 45.8074 89.276 45.676 90.0338 45.484C88.8819 44.7919 87.8967 44.2058 86.9115 43.6046C85.0674 42.4779 83.4153 41.134 82.2533 39.2798C80.8487 37.0466 81.3388 34.6771 83.5163 33.1867C85.7293 31.676 88.306 31.2011 90.8725 30.7161C93.4745 30.2209 96.1169 29.933 98.6582 29.1145C100.002 28.68 101.29 28.1343 102.417 27.2754C105.1 25.2393 105.085 21.6522 102.387 19.6363C100.826 18.4692 98.9664 17.9943 97.1273 17.484C96.8292 17.3981 96.511 17.3628 96.2331 17.2365C95.2479 16.7817 95.1872 16.0239 96.0865 15.4075C96.9859 14.7911 97.9306 14.2404 98.8047 13.5937C100.078 12.654 101.104 11.497 101.634 9.98131C102.301 8.07658 101.568 6.77814 99.5878 6.37395C98.0671 6.06071 96.6474 6.3689 95.3085 7.12169C93.1309 8.35446 91.4788 10.148 89.8974 12.0376C84.8299 18.1004 80.6163 24.6482 78.1053 32.1863C77.7365 33.2978 77.5849 33.3989 77.4434 33.2978C76.822 32.8633 77.403 32.3732 77.504 31.9994C79.2269 25.6082 81.0407 19.2422 84.4864 13.4927C86.9923 9.30935 89.9429 5.56052 94.5254 3.39813C96.6069 2.41798 98.7643 2.06936 101.013 2.56449C103.357 3.07983 105.034 4.42375 105.706 6.77814C106.449 9.35988 105.6 11.5172 103.685 13.2805C102.948 13.9626 102.074 14.4981 101.26 15.0993C100.977 15.3115 100.603 15.5237 100.654 15.8875C100.704 16.2159 101.134 16.1957 101.417 16.2967C102.655 16.7615 103.872 17.2567 104.979 18.0196C108.995 20.7984 109.197 25.8355 105.347 28.8417C102.68 30.9232 99.4514 31.5598 96.2078 32.0903C93.6311 32.5097 91.0089 32.6764 88.4626 33.2726C86.9772 33.6212 85.5373 34.1213 84.4258 35.248C83.2991 36.3898 83.0768 37.9207 83.9205 39.2899C85.4514 41.7605 87.6896 43.453 90.2966 44.9182L90.2814 44.9283Z" fill="white"/>
<path d="M32.2709 10.5117H35.3983V14.1645C36.818 11.8909 38.9703 10.062 42.5828 10.062C47.62 10.062 50.621 13.4723 50.621 18.4691V31.5041H47.4936V19.2421C47.4936 15.3467 45.4222 12.9065 41.6885 12.9065C37.9548 12.9065 35.3933 15.5438 35.3933 19.4846V31.5041H32.2659V10.5117H32.2709Z" fill="white"/>
<path d="M54.527 1.86198H57.6544V31.504H54.527V1.86198Z" fill="white"/>
<path d="M77.5847 10.5108H80.9142L72.1029 32.1954C70.3143 36.5404 68.2479 38.1218 65.1205 38.1218C63.3724 38.1218 62.074 37.758 60.6543 37.0658L61.7102 34.5902C62.7257 35.1207 63.6604 35.3632 64.9993 35.3632C66.9091 35.3632 68.0459 34.3881 69.3039 31.4224L59.76 10.5108H63.2108L70.8448 28.012L77.5847 10.5108Z" fill="white"/>
<path d="M110.139 25.4164V25.3355C110.139 20.9501 113.792 18.5553 119.112 18.5553C121.83 18.5553 123.659 18.9191 125.569 19.4496V18.717C125.569 14.9429 123.255 12.9927 119.314 12.9927C116.839 12.9927 114.888 13.604 112.938 14.5336L112.003 11.9772C114.317 10.8808 116.551 10.229 119.638 10.229C122.725 10.229 124.877 11.0021 126.418 12.543C127.838 13.9627 128.57 16.0342 128.57 18.6765V31.5095H125.564V28.3417C124.104 30.2514 121.709 31.9541 117.97 31.9541C114.232 31.9541 110.134 29.7614 110.134 25.4164H110.139ZM125.609 23.7895V21.7585C124.028 21.3139 122.037 20.8642 119.435 20.8642C115.495 20.8642 113.302 22.5719 113.302 25.2092V25.29C113.302 27.9274 115.778 29.4734 118.582 29.4734C122.482 29.4734 125.604 27.119 125.604 23.7895H125.609Z" fill="white"/>
<path d="M132.185 10.5117H135.312V14.1645C136.732 11.8909 138.884 10.062 142.497 10.062C147.534 10.062 150.535 13.4723 150.535 18.4691V31.5041H147.408V19.2421C147.408 15.3467 145.336 12.9065 141.603 12.9065C137.869 12.9065 135.307 15.5438 135.307 19.4846V31.5041H132.18V10.5117H132.185Z" fill="white"/>
<path d="M154.155 10.5117H157.282V14.1645C158.702 11.8909 160.854 10.062 164.466 10.062C169.504 10.062 172.505 13.4723 172.505 18.4691V31.5041H169.377V19.2421C169.377 15.3467 167.306 12.9065 163.572 12.9065C159.838 12.9065 157.277 15.5438 157.277 19.4846V31.5041H154.15V10.5117H154.155Z" fill="white"/>
<path d="M174.824 21.071V20.9902C174.824 14.9425 179.048 10.067 184.893 10.067C191.108 10.067 194.68 15.0183 194.68 21.1518C194.68 21.5964 194.68 21.8036 194.639 22.1673H177.992C178.436 26.7144 181.645 29.2709 185.383 29.2709C188.309 29.2709 190.254 28.0937 192.002 26.3052L193.952 28.0533C191.84 30.4481 189.324 31.9941 185.303 31.9941C179.578 31.9941 174.829 27.5683 174.829 21.071H174.824ZM191.512 19.8534C191.189 16.0793 189.036 12.7094 184.812 12.7094C181.119 12.7094 178.436 15.7964 177.992 19.8534H191.512Z" fill="white"/>
<path d="M195.897 21.0707V20.9898C195.897 14.1692 200.889 10.0667 205.926 10.0667C209.826 10.0667 212.342 12.1382 213.964 14.533V1.86676H217.091V31.5088H213.964V27.285C212.216 29.8011 209.821 31.9534 205.926 31.9534C200.889 31.9534 195.897 27.9722 195.897 21.0707ZM214.085 21.0303V20.9494C214.085 16.1194 210.392 12.8707 206.492 12.8707C202.591 12.8707 199.1 15.8769 199.1 20.9494V21.0303C199.1 26.022 202.47 29.1493 206.492 29.1493C210.513 29.1493 214.085 25.8603 214.085 21.0303Z" fill="white"/>
<path d="M25.4687 8.57581C24.5467 7.5641 23.6022 6.57133 22.5491 5.71091C23.801 3.98534 23.7603 2.0234 23.4847 0C25.9342 1.39936 26.9105 6.004 25.4687 8.58053V8.57581Z" fill="white"/>
<path d="M6.7851 5.15373C5.72079 5.96188 4.65643 6.77464 3.59704 7.5828C2.58244 5.09368 3.5125 2.06888 6.01919 0C5.92471 1.82412 5.82521 3.56974 6.7851 5.15373Z" fill="white"/>
<path d="M0 17.372V17.2911C0 9.45497 5.88598 2.5939 14.5356 2.5939C23.1852 2.5939 28.9903 9.37413 28.9903 17.2103V17.2911C28.9903 25.1273 23.1043 31.9884 14.4547 31.9884C5.80513 31.9884 0 25.2081 0 17.372ZM25.6608 17.372V17.2911C25.6608 10.8343 20.952 5.55457 14.4547 5.55457C7.95743 5.55457 3.32951 10.7534 3.32951 17.2103V17.2911C3.32951 23.748 8.03828 29.0277 14.5356 29.0277C21.0329 29.0277 25.6608 23.8288 25.6608 17.372Z" fill="white"/>
</svg>